<svg xmlns="http://www.w3.org/2000/svg" xmlns:xlink="http://www.w3.org/1999/xlink" width="1500" zoomAndPan="magnify" viewBox="0 0 1125 374.999991" height="500" preserveAspectRatio="xMidYMid meet" version="1.0"><defs><g/><clipPath id="id1"><path d="M 224 48 L 352 48 L 352 248 L 224 248 Z M 224 48 " clip-rule="nonzero"/></clipPath><clipPath id="id2"><path d="M 220.84375 244.71875 L 342.714844 43.671875 L 355.828125 51.621094 L 233.957031 252.667969 Z M 220.84375 244.71875 " clip-rule="nonzero"/></clipPath><clipPath id="id3"><path d="M 220.84375 244.71875 L 342.714844 43.671875 L 355.828125 51.621094 L 233.957031 252.667969 Z M 220.84375 244.71875 " clip-rule="nonzero"/></clipPath><clipPath id="id4"><path d="M 220.84375 244.71875 L 342.714844 43.671875 L 355.828125 51.621094 L 233.957031 252.667969 Z M 220.84375 244.71875 " clip-rule="nonzero"/></clipPath><clipPath id="id5"><path d="M 339 48 L 468 48 L 468 251 L 339 251 Z M 339 48 " clip-rule="nonzero"/></clipPath><clipPath id="id6"><path d="M 348.09375 44.214844 L 471.863281 247.097656 L 458.773438 255.085938 L 335.003906 52.199219 Z M 348.09375 44.214844 " clip-rule="nonzero"/></clipPath><clipPath id="id7"><path d="M 348.09375 44.214844 L 471.863281 247.097656 L 458.773438 255.085938 L 335.003906 52.199219 Z M 348.09375 44.214844 " clip-rule="nonzero"/></clipPath><clipPath id="id8"><path d="M 348.09375 44.214844 L 471.863281 247.097656 L 458.773438 255.085938 L 335.003906 52.199219 Z M 348.09375 44.214844 " clip-rule="nonzero"/></clipPath></defs><path stroke-linecap="butt" transform="matrix(0.000000000000000782, 12.768483, -12.777349, 0.000000000000000782, 281.783316, 41.024066)" fill="none" stroke-linejoin="miter" d="M -0.0000492311 -0.00014404 L 9.007726 -0.00014404 " stroke="#000000" stroke-width="1" stroke-opacity="1" stroke-miterlimit="4"/><g fill="#000000" fill-opacity="1"><g transform="translate(291.582256, 245.601811)"><g/></g></g><g fill="#000000" fill-opacity="1"><g transform="translate(340.283153, 245.601811)"><g/></g></g><g fill="#000000" fill-opacity="1"><g transform="translate(388.98405, 245.601811)"><g/></g></g><g fill="#000000" fill-opacity="1"><g transform="translate(437.683273, 245.601811)"><g><path d="M 48.296875 0 L 70.417969 0 C 70.011719 -24.757812 69.808594 -49.921875 69.808594 -75.085938 C 69.808594 -92.535156 70.011719 -120.335938 70.417969 -138.398438 C 85.433594 -138.398438 103.292969 -138.195312 119.324219 -137.992188 L 119.324219 -154.835938 L -0.40625 -154.835938 L -0.40625 -137.992188 C 15.828125 -138.195312 33.890625 -138.398438 48.5 -138.398438 C 48.703125 -119.121094 48.90625 -97.203125 48.90625 -76.503906 C 48.90625 -51.542969 48.703125 -25.570312 48.296875 0 Z M 48.296875 0 "/></g></g></g><g fill="#000000" fill-opacity="1"><g transform="translate(556.594597, 245.601811)"><g><path d="M 73.054688 2.433594 C 109.785156 2.433594 133.527344 -13.800781 133.933594 -41.804688 C 134.136719 -65.953125 121.554688 -78.941406 74.476562 -84.417969 C 45.253906 -89.289062 34.09375 -95.378906 34.09375 -113.03125 C 34.09375 -122.570312 37.746094 -130.484375 42.210938 -135.558594 C 48.296875 -138.804688 61.285156 -140.832031 71.027344 -140.832031 C 98.828125 -140.832031 106.945312 -128.046875 111.8125 -107.957031 L 132.714844 -110.191406 C 126.628906 -139.820312 109.988281 -156.863281 72.242188 -156.863281 C 37.949219 -156.863281 12.785156 -143.269531 12.785156 -114.453125 C 12.785156 -88.070312 33.078125 -76.503906 71.027344 -72.851562 C 103.695312 -69.199219 113.234375 -58.445312 113.03125 -42.617188 C 112.828125 -33.890625 109.988281 -26.582031 105.929688 -19.683594 C 98.828125 -15.625 86.449219 -13.191406 73.460938 -13.191406 C 44.644531 -13.191406 34.5 -26.988281 30.84375 -46.675781 L 8.320312 -45.050781 C 12.175781 -13.191406 31.65625 2.433594 73.054688 2.433594 Z M 73.054688 2.433594 "/></g></g></g><g fill="#000000" fill-opacity="1"><g transform="translate(698.841743, 245.601811)"><g><path d="M 16.84375 0 L 39.164062 0 C 38.960938 -17.65625 38.757812 -54.183594 38.757812 -71.429688 L 120.945312 -70.824219 L 120.945312 -85.027344 L 38.757812 -84.621094 L 38.757812 -138.398438 L 126.222656 -138.398438 L 126.222656 -154.835938 L 16.84375 -154.835938 C 17.046875 -136.773438 18.0625 -97.40625 18.0625 -77.113281 C 18.0625 -55.195312 17.25 -17.65625 16.84375 0 Z M 16.84375 0 "/></g></g></g><g clip-path="url(#id1)"><g clip-path="url(#id2)"><g clip-path="url(#id3)"><g clip-path="url(#id4)"><path fill="#000000" d="M 337.570312 52.164062 L 225.992188 236.230469 C 223.789062 239.859375 224.941406 244.582031 228.5625 246.777344 C 232.183594 248.972656 236.902344 247.808594 239.101562 244.175781 L 350.679688 60.113281 C 352.882812 56.480469 351.730469 51.757812 348.109375 49.5625 C 344.488281 47.367188 339.769531 48.53125 337.570312 52.164062 Z M 337.570312 52.164062 " fill-opacity="1" fill-rule="nonzero"/></g></g></g></g><g clip-path="url(#id5)"><g clip-path="url(#id6)"><g clip-path="url(#id7)"><g clip-path="url(#id8)"><path fill="#000000" d="M 466.671875 238.59375 L 353.28125 52.71875 C 351.042969 49.054688 346.300781 47.867188 342.6875 50.074219 C 339.074219 52.277344 337.957031 57.039062 340.191406 60.703125 L 453.582031 246.578125 C 455.820312 250.246094 460.5625 251.429688 464.175781 249.222656 C 467.792969 247.019531 468.910156 242.257812 466.671875 238.59375 Z M 466.671875 238.59375 " fill-opacity="1" fill-rule="nonzero"/></g></g></g></g><path stroke-linecap="butt" transform="matrix(-12.943908, -0.000000000000001585, 0.000000000000001565, -12.777349, 324.676252, 47.403765)" fill="none" stroke-linejoin="miter" d="M 0.0000363823 0.000111223 L 3.356768 0.000111223 " stroke="#000000" stroke-width="1" stroke-opacity="1" stroke-miterlimit="4"/><path stroke-linecap="butt" transform="matrix(0.000000000000000764, -12.474158, 12.777349, 0.000000000000000782, 318.284347, 94.528755)" fill="none" stroke-linejoin="miter" d="M 0.000113165 0.0000633348 L 3.688676 0.0000633348 " stroke="#000000" stroke-width="1" stroke-opacity="1" stroke-miterlimit="4"/><g fill="#120e0e" fill-opacity="1"><g transform="translate(392.310242, 318.572371)"><g><path d="M 6.609375 -44.078125 L 12.90625 -44.078125 L 12.90625 0 L 6.609375 0 Z M 6.609375 -44.078125 "/></g></g></g><g fill="#120e0e" fill-opacity="1"><g transform="translate(411.829252, 318.572371)"><g><path d="M 47.484375 -33.6875 C 51.679688 -33.6875 55.003906 -32.46875 57.453125 -30.03125 C 59.910156 -27.601562 61.140625 -23.992188 61.140625 -19.203125 L 61.140625 0 L 55.09375 0 L 55.09375 -18.515625 C 55.09375 -21.742188 54.347656 -24.175781 52.859375 -25.8125 C 51.367188 -27.445312 49.238281 -28.265625 46.46875 -28.265625 C 43.40625 -28.265625 40.96875 -27.3125 39.15625 -25.40625 C 37.351562 -23.5 36.453125 -20.757812 36.453125 -17.1875 L 36.453125 0 L 30.40625 0 L 30.40625 -18.515625 C 30.40625 -21.742188 29.660156 -24.175781 28.171875 -25.8125 C 26.679688 -27.445312 24.550781 -28.265625 21.78125 -28.265625 C 18.71875 -28.265625 16.285156 -27.3125 14.484375 -25.40625 C 12.679688 -23.5 11.78125 -20.757812 11.78125 -17.1875 L 11.78125 0 L 5.734375 0 L 5.734375 -33.375 L 11.515625 -33.375 L 11.515625 -28.40625 C 12.734375 -30.125 14.328125 -31.429688 16.296875 -32.328125 C 18.273438 -33.234375 20.523438 -33.6875 23.046875 -33.6875 C 25.648438 -33.6875 27.957031 -33.160156 29.96875 -32.109375 C 31.988281 -31.066406 33.539062 -29.535156 34.625 -27.515625 C 35.882812 -29.441406 37.640625 -30.953125 39.890625 -32.046875 C 42.140625 -33.140625 44.671875 -33.6875 47.484375 -33.6875 Z M 47.484375 -33.6875 "/></g></g></g><g fill="#120e0e" fill-opacity="1"><g transform="translate(478.382874, 318.572371)"><g><path d="M 20.03125 0.375 C 16.707031 0.375 13.722656 -0.359375 11.078125 -1.828125 C 8.429688 -3.296875 6.363281 -5.320312 4.875 -7.90625 C 3.382812 -10.488281 2.640625 -13.414062 2.640625 -16.6875 C 2.640625 -19.957031 3.382812 -22.882812 4.875 -25.46875 C 6.363281 -28.050781 8.429688 -30.066406 11.078125 -31.515625 C 13.722656 -32.960938 16.707031 -33.6875 20.03125 -33.6875 C 23.34375 -33.6875 26.3125 -32.960938 28.9375 -31.515625 C 31.5625 -30.066406 33.617188 -28.050781 35.109375 -25.46875 C 36.597656 -22.882812 37.34375 -19.957031 37.34375 -16.6875 C 37.34375 -13.414062 36.597656 -10.488281 35.109375 -7.90625 C 33.617188 -5.320312 31.5625 -3.296875 28.9375 -1.828125 C 26.3125 -0.359375 23.34375 0.375 20.03125 0.375 Z M 20.03125 -4.90625 C 22.164062 -4.90625 24.082031 -5.398438 25.78125 -6.390625 C 27.476562 -7.378906 28.8125 -8.765625 29.78125 -10.546875 C 30.75 -12.328125 31.234375 -14.375 31.234375 -16.6875 C 31.234375 -19 30.75 -21.046875 29.78125 -22.828125 C 28.8125 -24.609375 27.476562 -25.984375 25.78125 -26.953125 C 24.082031 -27.921875 22.164062 -28.40625 20.03125 -28.40625 C 17.882812 -28.40625 15.960938 -27.921875 14.265625 -26.953125 C 12.566406 -25.984375 11.222656 -24.609375 10.234375 -22.828125 C 9.242188 -21.046875 8.75 -19 8.75 -16.6875 C 8.75 -14.375 9.242188 -12.328125 10.234375 -10.546875 C 11.222656 -8.765625 12.566406 -7.378906 14.265625 -6.390625 C 15.960938 -5.398438 17.882812 -4.90625 20.03125 -4.90625 Z M 20.03125 -4.90625 "/></g></g></g><g fill="#120e0e" fill-opacity="1"><g transform="translate(518.365431, 318.572371)"><g><path d="M 23.421875 -33.6875 C 26.648438 -33.6875 29.546875 -32.972656 32.109375 -31.546875 C 34.671875 -30.117188 36.675781 -28.125 38.125 -25.5625 C 39.570312 -23 40.296875 -20.039062 40.296875 -16.6875 C 40.296875 -13.332031 39.570312 -10.363281 38.125 -7.78125 C 36.675781 -5.195312 34.671875 -3.191406 32.109375 -1.765625 C 29.546875 -0.335938 26.648438 0.375 23.421875 0.375 C 20.941406 0.375 18.671875 -0.101562 16.609375 -1.0625 C 14.554688 -2.03125 12.859375 -3.441406 11.515625 -5.296875 L 11.515625 0 L 5.734375 0 L 5.734375 -46.71875 L 11.78125 -46.71875 L 11.78125 -28.328125 C 13.125 -30.097656 14.800781 -31.429688 16.8125 -32.328125 C 18.820312 -33.234375 21.023438 -33.6875 23.421875 -33.6875 Z M 22.921875 -4.90625 C 25.054688 -4.90625 26.972656 -5.398438 28.671875 -6.390625 C 30.378906 -7.378906 31.722656 -8.765625 32.703125 -10.546875 C 33.691406 -12.328125 34.1875 -14.375 34.1875 -16.6875 C 34.1875 -19 33.691406 -21.046875 32.703125 -22.828125 C 31.722656 -24.609375 30.378906 -25.984375 28.671875 -26.953125 C 26.972656 -27.921875 25.054688 -28.40625 22.921875 -28.40625 C 20.816406 -28.40625 18.90625 -27.921875 17.1875 -26.953125 C 15.46875 -25.984375 14.125 -24.609375 13.15625 -22.828125 C 12.195312 -21.046875 11.71875 -19 11.71875 -16.6875 C 11.71875 -14.375 12.195312 -12.328125 13.15625 -10.546875 C 14.125 -8.765625 15.46875 -7.378906 17.1875 -6.390625 C 18.90625 -5.398438 20.816406 -4.90625 22.921875 -4.90625 Z M 22.921875 -4.90625 "/></g></g></g><g fill="#120e0e" fill-opacity="1"><g transform="translate(561.307294, 318.572371)"><g><path d="M 5.734375 -33.375 L 11.78125 -33.375 L 11.78125 0 L 5.734375 0 Z M 8.75 -39.796875 C 7.570312 -39.796875 6.59375 -40.171875 5.8125 -40.921875 C 5.039062 -41.679688 4.65625 -42.609375 4.65625 -43.703125 C 4.65625 -44.796875 5.039062 -45.726562 5.8125 -46.5 C 6.59375 -47.28125 7.570312 -47.671875 8.75 -47.671875 C 9.925781 -47.671875 10.898438 -47.300781 11.671875 -46.5625 C 12.453125 -45.832031 12.84375 -44.921875 12.84375 -43.828125 C 12.84375 -42.691406 12.453125 -41.734375 11.671875 -40.953125 C 10.898438 -40.179688 9.925781 -39.796875 8.75 -39.796875 Z M 8.75 -39.796875 "/></g></g></g><g fill="#120e0e" fill-opacity="1"><g transform="translate(578.874416, 318.572371)"><g><path d="M 5.734375 -46.71875 L 11.78125 -46.71875 L 11.78125 0 L 5.734375 0 Z M 5.734375 -46.71875 "/></g></g></g><g fill="#120e0e" fill-opacity="1"><g transform="translate(596.441539, 318.572371)"><g><path d="M 5.734375 -33.375 L 11.78125 -33.375 L 11.78125 0 L 5.734375 0 Z M 8.75 -39.796875 C 7.570312 -39.796875 6.59375 -40.171875 5.8125 -40.921875 C 5.039062 -41.679688 4.65625 -42.609375 4.65625 -43.703125 C 4.65625 -44.796875 5.039062 -45.726562 5.8125 -46.5 C 6.59375 -47.28125 7.570312 -47.671875 8.75 -47.671875 C 9.925781 -47.671875 10.898438 -47.300781 11.671875 -46.5625 C 12.453125 -45.832031 12.84375 -44.921875 12.84375 -43.828125 C 12.84375 -42.691406 12.453125 -41.734375 11.671875 -40.953125 C 10.898438 -40.179688 9.925781 -39.796875 8.75 -39.796875 Z M 8.75 -39.796875 "/></g></g></g><g fill="#120e0e" fill-opacity="1"><g transform="translate(614.008661, 318.572371)"><g><path d="M 17.890625 -33.6875 C 22.503906 -33.6875 26.035156 -32.550781 28.484375 -30.28125 C 30.941406 -28.019531 32.171875 -24.644531 32.171875 -20.15625 L 32.171875 0 L 26.453125 0 L 26.453125 -4.40625 C 25.441406 -2.851562 24 -1.664062 22.125 -0.84375 C 20.257812 -0.03125 18.046875 0.375 15.484375 0.375 C 11.753906 0.375 8.765625 -0.523438 6.515625 -2.328125 C 4.265625 -4.128906 3.140625 -6.5 3.140625 -9.4375 C 3.140625 -12.382812 4.210938 -14.75 6.359375 -16.53125 C 8.503906 -18.3125 11.90625 -19.203125 16.5625 -19.203125 L 26.125 -19.203125 L 26.125 -20.40625 C 26.125 -23.007812 25.367188 -25.003906 23.859375 -26.390625 C 22.347656 -27.773438 20.125 -28.46875 17.1875 -28.46875 C 15.21875 -28.46875 13.285156 -28.140625 11.390625 -27.484375 C 9.503906 -26.835938 7.910156 -25.96875 6.609375 -24.875 L 4.09375 -29.40625 C 5.8125 -30.789062 7.867188 -31.847656 10.265625 -32.578125 C 12.660156 -33.316406 15.203125 -33.6875 17.890625 -33.6875 Z M 16.5 -4.28125 C 18.8125 -4.28125 20.804688 -4.796875 22.484375 -5.828125 C 24.160156 -6.859375 25.375 -8.316406 26.125 -10.203125 L 26.125 -14.859375 L 16.8125 -14.859375 C 11.6875 -14.859375 9.125 -13.140625 9.125 -9.703125 C 9.125 -8.015625 9.773438 -6.6875 11.078125 -5.71875 C 12.378906 -4.757812 14.1875 -4.28125 16.5 -4.28125 Z M 22.171875 -46.40625 L 29.84375 -46.40625 L 19.265625 -38.21875 L 13.609375 -38.21875 Z M 22.171875 -46.40625 "/></g></g></g><g fill="#120e0e" fill-opacity="1"><g transform="translate(651.661516, 318.572371)"><g><path d="M 11.515625 -27.765625 C 12.566406 -29.703125 14.117188 -31.171875 16.171875 -32.171875 C 18.234375 -33.179688 20.734375 -33.6875 23.671875 -33.6875 L 23.671875 -27.828125 C 23.335938 -27.867188 22.878906 -27.890625 22.296875 -27.890625 C 19.015625 -27.890625 16.441406 -26.910156 14.578125 -24.953125 C 12.710938 -23.003906 11.78125 -20.226562 11.78125 -16.625 L 11.78125 0 L 5.734375 0 L 5.734375 -33.375 L 11.515625 -33.375 Z M 11.515625 -27.765625 "/></g></g></g><g fill="#120e0e" fill-opacity="1"><g transform="translate(677.477018, 318.572371)"><g><path d="M 5.734375 -33.375 L 11.78125 -33.375 L 11.78125 0 L 5.734375 0 Z M 8.75 -39.796875 C 7.570312 -39.796875 6.59375 -40.171875 5.8125 -40.921875 C 5.039062 -41.679688 4.65625 -42.609375 4.65625 -43.703125 C 4.65625 -44.796875 5.039062 -45.726562 5.8125 -46.5 C 6.59375 -47.28125 7.570312 -47.671875 8.75 -47.671875 C 9.925781 -47.671875 10.898438 -47.300781 11.671875 -46.5625 C 12.453125 -45.832031 12.84375 -44.921875 12.84375 -43.828125 C 12.84375 -42.691406 12.453125 -41.734375 11.671875 -40.953125 C 10.898438 -40.179688 9.925781 -39.796875 8.75 -39.796875 Z M 8.75 -39.796875 "/></g></g></g><g fill="#120e0e" fill-opacity="1"><g transform="translate(695.04414, 318.572371)"><g><path d="M 17.890625 -33.6875 C 22.503906 -33.6875 26.035156 -32.550781 28.484375 -30.28125 C 30.941406 -28.019531 32.171875 -24.644531 32.171875 -20.15625 L 32.171875 0 L 26.453125 0 L 26.453125 -4.40625 C 25.441406 -2.851562 24 -1.664062 22.125 -0.84375 C 20.257812 -0.03125 18.046875 0.375 15.484375 0.375 C 11.753906 0.375 8.765625 -0.523438 6.515625 -2.328125 C 4.265625 -4.128906 3.140625 -6.5 3.140625 -9.4375 C 3.140625 -12.382812 4.210938 -14.75 6.359375 -16.53125 C 8.503906 -18.3125 11.90625 -19.203125 16.5625 -19.203125 L 26.125 -19.203125 L 26.125 -20.40625 C 26.125 -23.007812 25.367188 -25.003906 23.859375 -26.390625 C 22.347656 -27.773438 20.125 -28.46875 17.1875 -28.46875 C 15.21875 -28.46875 13.285156 -28.140625 11.390625 -27.484375 C 9.503906 -26.835938 7.910156 -25.96875 6.609375 -24.875 L 4.09375 -29.40625 C 5.8125 -30.789062 7.867188 -31.847656 10.265625 -32.578125 C 12.660156 -33.316406 15.203125 -33.6875 17.890625 -33.6875 Z M 16.5 -4.28125 C 18.8125 -4.28125 20.804688 -4.796875 22.484375 -5.828125 C 24.160156 -6.859375 25.375 -8.316406 26.125 -10.203125 L 26.125 -14.859375 L 16.8125 -14.859375 C 11.6875 -14.859375 9.125 -13.140625 9.125 -9.703125 C 9.125 -8.015625 9.773438 -6.6875 11.078125 -5.71875 C 12.378906 -4.757812 14.1875 -4.28125 16.5 -4.28125 Z M 16.5 -4.28125 "/></g></g></g></svg>